<svg width="25" height="24" viewBox="0 0 25 24" fill="none" xmlns="http://www.w3.org/2000/svg">
<path d="M21.9115 11.9486V5.7606H23.9503V11.9358H21.9023L21.9115 11.9486Z" fill="white"/>
<path d="M3.10164 11.9142H1.09375V5.77734H3.10164V11.9142Z" fill="white"/>
<path d="M9.38778 3.66919L5.18945 3.64545L5.2004 3.6564V1.59375H9.38048V3.68197L9.38778 3.66919Z" fill="white"/>
<path d="M19.7758 3.68541C18.6101 3.67081 17.4437 3.6562 16.2766 3.64159C16.0831 3.64159 15.8896 3.64159 15.6797 3.64159V1.5826H19.7631V3.69453L19.7758 3.68541Z" fill="white"/>
<path d="M21.9025 11.9364V14.0374H19.7979L19.8107 14.0502V11.9492H21.9117L21.9025 11.9364Z" fill="white"/>
<path d="M7.27562 16.1524L5.26772 16.0576C5.23122 15.3858 5.19472 14.7305 5.1582 14.0734V14.0825H7.26284V16.1616L7.27562 16.1524Z" fill="white"/>
<path d="M13.5846 20.2177V22.3058H11.5383V20.1903L11.5273 20.2013L13.5974 20.2304L13.5846 20.2177Z" fill="white"/>
<path d="M11.4985 5.74788L9.38653 5.6548V3.66881L9.37012 3.68159H11.4985V5.75884V5.74788Z" fill="white"/>
<path d="M19.7637 3.69455H21.8664V5.67141H19.7783C19.7783 4.99786 19.7783 4.34073 19.7783 3.68359L19.7637 3.69455Z" fill="white"/>
<path d="M11.5386 20.1904H9.4248V18.2263H11.5258C11.5258 18.8907 11.5258 19.5497 11.5258 20.2067L11.5386 20.1904Z" fill="white"/>
<path d="M7.2627 16.1619H9.35821V18.1205H7.2773C7.2773 17.4634 7.2773 16.8069 7.2773 16.151L7.2627 16.1619Z" fill="white"/>
<path d="M19.7979 14.0371V16.0615H17.7754V14.0535H19.8107L19.7979 14.0371Z" fill="white"/>
<path d="M5.16597 14.0736L3.19824 13.9751V11.9799H5.15868V14.0827L5.16597 14.0736Z" fill="white"/>
<path d="M11.498 5.76111H13.5059V7.74345H11.498V5.74834V5.76111Z" fill="white"/>
<path d="M5.1817 3.64537V5.65327H3.20117V3.64537H5.19265H5.1817Z" fill="white"/>
<path d="M13.6084 5.66207V3.67244H15.5999V5.66207H13.6084Z" fill="white"/>
<path d="M17.7042 16.151V18.1151H15.6963V16.151H17.7042Z" fill="white"/>
<path d="M13.5968 20.2342V18.2263H15.6047V20.2214H13.584L13.5968 20.2342Z" fill="white"/>
</svg>
