<svg width="19" height="19" viewBox="0 0 19 19" fill="none" xmlns="http://www.w3.org/2000/svg">
<mask id="mask0_13_230" style="mask-type:luminance" maskUnits="userSpaceOnUse" x="0" y="0" width="19" height="19">
<path d="M18.5 0.75H0.5V18.75H18.5V0.75Z" fill="white"/>
</mask>
<g mask="url(#mask0_13_230)">
<path d="M12.0707 11.0347H10.7861V12.3217H12.0707V11.0347Z" fill="#FF7774"/>
<path d="M12.0707 4.60641H10.7861V5.89113H12.0707V4.60641Z" fill="#FF7774"/>
<path d="M10.7859 12.3217H9.49902V13.6064H10.7859V12.3217Z" fill="#FF7774"/>
<path d="M10.7859 4.60641H9.49902V5.89113H10.7859V4.60641Z" fill="#FF7774"/>
<path d="M9.49841 12.3217H8.21387V13.6064H9.49841V12.3217Z" fill="#FF7774"/>
<path d="M9.49841 4.60641H8.21387V5.89113H9.49841V4.60641Z" fill="#FF7774"/>
<path d="M8.21423 4.60641H6.92969V5.89113H8.21423V4.60641Z" fill="#FF7774"/>
<path d="M6.92947 5.89116H5.64258V7.17821H6.92947V5.89116Z" fill="#FF7774"/>
<path d="M5.64294 11.0347H4.3584V12.3217H5.64294V11.0347Z" fill="#FF7774"/>
<path d="M5.64294 9.75H4.3584V11.0347H5.64294V9.75Z" fill="#FF7774"/>
<path d="M5.64294 8.46284H4.3584V9.7499H5.64294V8.46284Z" fill="#FF7774"/>
<path d="M5.64294 7.17833H4.3584V8.46304H5.64294V7.17833Z" fill="#FF7774"/>
<path d="M15.9288 5.89122V4.6065H14.6419V3.31946H13.3574V2.03474H5.63607V3.31946H4.35854V4.6065H3.07165V5.89122H1.78711V13.6135H3.07165V16.1876H5.64543V17.4724H13.3667V16.1783H14.6513V14.8913H15.9382V13.6065H17.2227V5.8842L15.9288 5.89122ZM15.9288 8.46532V12.3241H14.6419V13.6088H13.3574V14.8936H12.0704V16.1806H6.92295V14.8936H5.63607V13.6088H4.35854V12.3241H3.07165V7.17593H4.35854V5.88888H5.64309V4.6065H6.92997V3.31946H12.0775V4.6065H13.3644V5.89122H14.6489V7.17827H15.9359L15.9288 8.46532Z" fill="#FFD393"/>
<path d="M14.6414 9.7499V7.17579H13.3568V5.88875H6.92947V7.17579H5.64258V13.6041H6.92947V14.8887H12.077V13.6041H13.3639V12.3193H14.6484V9.74522L14.6414 9.7499ZM10.7855 12.324V13.6087H8.21167V11.0346H6.92947V8.46051H8.21401V7.17813H10.7878V8.46285H12.0724V12.3217L10.7855 12.324Z" fill="#FFD393"/>
<path d="M17.2133 12.3217H15.9287V13.6064H17.2133V12.3217Z" fill="#FFBE82"/>
<path d="M17.2133 11.0347H15.9287V12.3217H17.2133V11.0347Z" fill="#C47565"/>
<path d="M17.2133 9.75H15.9287V11.0347H17.2133V9.75Z" fill="#FFBE82"/>
<path d="M17.2133 8.46284H15.9287V9.7499H17.2133V8.46284Z" fill="#C47565"/>
<path d="M17.2133 7.17833H15.9287V8.46304H17.2133V7.17833Z" fill="#FFBE82"/>
<path d="M17.2133 5.89116H15.9287V7.17821H17.2133V5.89116Z" fill="#FFBE82"/>
<path d="M15.9284 13.6064H14.6416V14.8912H15.9284V13.6064Z" fill="#C47565"/>
<path d="M15.9284 12.3217H14.6416V13.6064H15.9284V12.3217Z" fill="#FFBE82"/>
<path d="M14.642 14.8912H13.3574V16.1782H14.642V14.8912Z" fill="#C47565"/>
<path d="M14.642 13.6064H13.3574V14.8912H14.642V13.6064Z" fill="#FFBE82"/>
<path d="M14.642 9.75H13.3574V11.0347H14.642V9.75Z" fill="#F0916C"/>
<path d="M14.642 8.46284H13.3574V9.7499H14.642V8.46284Z" fill="#F0916C"/>
<path d="M14.642 3.31949H13.3574V4.60654H14.642V3.31949Z" fill="#F0916C"/>
<path d="M13.3572 16.1783H12.0703V17.463H13.3572V16.1783Z" fill="#F0916C"/>
<path d="M13.3572 14.8912H12.0703V16.1782H13.3572V14.8912Z" fill="#FFBE82"/>
<path d="M12.0707 11.0347H10.7861V12.3217H12.0707V11.0347Z" fill="#C47565"/>
<path d="M12.0707 9.75H10.7861V11.0347H12.0707V9.75Z" fill="#FFEAC8"/>
<path d="M12.0707 8.46284H10.7861V9.7499H12.0707V8.46284Z" fill="#FFEAC8"/>
<path d="M12.0707 4.60641H10.7861V5.89113H12.0707V4.60641Z" fill="#C47565"/>
<path d="M10.7859 12.3217H9.49902V13.6064H10.7859V12.3217Z" fill="#C47565"/>
<path d="M10.7859 11.0347H9.49902V12.3217H10.7859V11.0347Z" fill="#FFEAC8"/>
<path d="M10.7859 9.75H9.49902V11.0347H10.7859V9.75Z" fill="#FFEAC8"/>
<path d="M10.7859 8.46284H9.49902V9.7499H10.7859V8.46284Z" fill="#FFEAC8"/>
<path d="M10.7859 7.17833H9.49902V8.46304H10.7859V7.17833Z" fill="#FFEAC8"/>
<path d="M10.7859 4.60641H9.49902V5.89113H10.7859V4.60641Z" fill="#C47565"/>
<path d="M9.49841 12.3217H8.21387V13.6064H9.49841V12.3217Z" fill="#C47565"/>
<path d="M9.49841 11.0347H8.21387V12.3217H9.49841V11.0347Z" fill="#FFEAC8"/>
<path d="M9.49841 9.75H8.21387V11.0347H9.49841V9.75Z" fill="#FFEAC8"/>
<path d="M9.49841 8.46284H8.21387V9.7499H9.49841V8.46284Z" fill="#FFD393"/>
<path d="M9.49841 7.17833H8.21387V8.46304H9.49841V7.17833Z" fill="#FFEAC8"/>
<path d="M9.49841 4.60641H8.21387V5.89113H9.49841V4.60641Z" fill="#C47565"/>
<path d="M8.21423 9.75H6.92969V11.0347H8.21423V9.75Z" fill="#FFEAC8"/>
<path d="M8.21423 8.46284H6.92969V9.7499H8.21423V8.46284Z" fill="#FFEAC8"/>
<path d="M8.21423 4.60641H6.92969V5.89113H8.21423V4.60641Z" fill="#C47565"/>
<path d="M6.92947 5.89116H5.64258V7.17821H6.92947V5.89116Z" fill="#C47565"/>
<path d="M5.64294 14.8912H4.3584V16.1782H5.64294V14.8912Z" fill="#FFBE82"/>
<path d="M5.64294 11.0347H4.3584V12.3217H5.64294V11.0347Z" fill="#C47565"/>
<path d="M5.64294 9.75H4.3584V11.0347H5.64294V9.75Z" fill="#C47565"/>
<path d="M5.64294 8.46284H4.3584V9.7499H5.64294V8.46284Z" fill="#C47565"/>
<path d="M5.64294 7.17833H4.3584V8.46304H5.64294V7.17833Z" fill="#C47565"/>
<path d="M6.92947 2.03474H5.64258V3.31946H6.92947V2.03474Z" fill="#FFEAC8"/>
<path d="M5.64294 3.31949H4.3584V4.60654H5.64294V3.31949Z" fill="#FFEAC8"/>
<path d="M4.35817 4.60641H3.07129V5.89113H4.35817V4.60641Z" fill="#FFEAC8"/>
<path d="M1.78711 7.17821V8.46293V9.74997V11.0347V12.3217H3.07165V11.0347V9.74997V8.46293V7.17821V5.89116H1.78711V7.17821Z" fill="#FFEAC8"/>
<path d="M15.9284 11.0347H14.6416V12.3217H15.9284V11.0347Z" fill="#C47565"/>
<path d="M15.9284 9.75H14.6416V11.0347H15.9284V9.75Z" fill="#C47565"/>
<path d="M15.9284 8.46284H14.6416V9.7499H15.9284V8.46284Z" fill="#C47565"/>
<path d="M15.9284 7.17833H14.6416V8.46304H15.9284V7.17833Z" fill="#C47565"/>
<path d="M14.642 12.3217H13.3574V13.6064H14.642V12.3217Z" fill="#C47565"/>
<path d="M14.642 9.75H13.3574V11.0347H14.642V9.75Z" fill="#FFBE82"/>
<path d="M14.642 8.46284H13.3574V9.7499H14.642V8.46284Z" fill="#FFBE82"/>
<path d="M14.642 5.89116H13.3574V7.17821H14.642V5.89116Z" fill="#C47565"/>
<path d="M13.3572 13.6064H12.0703V14.8912H13.3572V13.6064Z" fill="#C47565"/>
<path d="M13.3572 12.3217H12.0703V13.6064H13.3572V12.3217Z" fill="#FFBE82"/>
<path d="M13.3572 7.17833H12.0703V8.46304H13.3572V7.17833Z" fill="#FFBE82"/>
<path d="M13.3572 4.60641H12.0703V5.89113H13.3572V4.60641Z" fill="#C47565"/>
<path d="M12.0707 14.8912H10.7861V16.1782H12.0707V14.8912Z" fill="#C47565"/>
<path d="M12.0707 9.75H10.7861V11.0347H12.0707V9.75Z" fill="#FFD393"/>
<path d="M12.0707 8.46284H10.7861V9.7499H12.0707V8.46284Z" fill="#FFD393"/>
<path d="M12.0707 3.31949H10.7861V4.60654H12.0707V3.31949Z" fill="#C47565"/>
<path d="M10.7859 14.8912H9.49902V16.1782H10.7859V14.8912Z" fill="#C47565"/>
<path d="M10.7859 11.0347H9.49902V12.3217H10.7859V11.0347Z" fill="#FFD393"/>
<path d="M10.7859 9.75H9.49902V11.0347H10.7859V9.75Z" fill="#FFBE82"/>
<path d="M10.7859 8.46284H9.49902V9.7499H10.7859V8.46284Z" fill="#FFBE82"/>
<path d="M10.7859 7.17833H9.49902V8.46304H10.7859V7.17833Z" fill="#FFD393"/>
<path d="M10.7859 3.31949H9.49902V4.60654H10.7859V3.31949Z" fill="#C47565"/>
<path d="M9.49841 14.8912H8.21387V16.1782H9.49841V14.8912Z" fill="#C47565"/>
<path d="M9.49841 11.0347H8.21387V12.3217H9.49841V11.0347Z" fill="#FFD393"/>
<path d="M9.49841 9.75H8.21387V11.0347H9.49841V9.75Z" fill="#FFBE82"/>
<path d="M9.49841 7.17833H8.21387V8.46304H9.49841V7.17833Z" fill="#FFD393"/>
<path d="M9.49841 3.31949H8.21387V4.60654H9.49841V3.31949Z" fill="#C47565"/>
<path d="M8.21423 14.8912H6.92969V16.1782H8.21423V14.8912Z" fill="#C47565"/>
<path d="M8.21423 13.6064H6.92969V14.8912H8.21423V13.6064Z" fill="#FFBE82"/>
<path d="M8.21423 9.75H6.92969V11.0347H8.21423V9.75Z" fill="#FFD393"/>
<path d="M8.21423 8.46284H6.92969V9.7499H8.21423V8.46284Z" fill="#FFD393"/>
<path d="M8.21423 3.31949H6.92969V4.60654H8.21423V3.31949Z" fill="#C47565"/>
<path d="M6.92947 13.6064H5.64258V14.8912H6.92947V13.6064Z" fill="#C47565"/>
<path d="M6.92947 4.60641H5.64258V5.89113H6.92947V4.60641Z" fill="#C47565"/>
<path d="M5.64294 12.3217H4.3584V13.6064H5.64294V12.3217Z" fill="#C47565"/>
<path d="M17.2133 11.0347H15.9287V12.3217H17.2133V11.0347Z" fill="#FFAF7C"/>
<path d="M17.2133 8.46284H15.9287V9.7499H17.2133V8.46284Z" fill="#FFAF7C"/>
<path d="M15.9284 13.6064H14.6416V14.8912H15.9284V13.6064Z" fill="#FFAF7C"/>
<path d="M14.642 14.8912H13.3574V16.1782H14.642V14.8912Z" fill="#FFAF7C"/>
<path d="M12.0707 11.0347H10.7861V12.3217H12.0707V11.0347Z" fill="#FFAF7C"/>
<path d="M9.49877 4.60641H8.21423H6.92969V5.89113H8.21423H9.49877H10.7857H12.0702V4.60641H10.7857H9.49877Z" fill="#FFAF7C"/>
<path d="M8.21387 12.3217V13.6064H9.49841H10.7853V12.3217H9.49841H8.21387Z" fill="#FFAF7C"/>
<path d="M6.92947 5.89116H5.64258V7.17821H6.92947V5.89116Z" fill="#FFAF7C"/>
<path d="M4.3584 8.46304V9.7501V11.0348V12.3218H5.64294V11.0348V9.7501V8.46304V7.17833H4.3584V8.46304Z" fill="#FFAF7C"/>
<path d="M5.64294 5.89116H4.3584V7.17821H5.64294V5.89116Z" fill="#C47565"/>
<path d="M4.35817 11.0347H3.07129V12.3217H4.35817V11.0347Z" fill="#C47565"/>
<path d="M4.35817 9.75H3.07129V11.0347H4.35817V9.75Z" fill="#C47565"/>
<path d="M4.35817 8.46284H3.07129V9.7499H4.35817V8.46284Z" fill="#C47565"/>
<path d="M4.35817 7.17833H3.07129V8.46304H4.35817V7.17833Z" fill="#C47565"/>
<path d="M14.6416 8.46304V9.7501V11.0348V12.3218H15.9284V11.0348V9.7501V8.46304V7.17833H14.6416V8.46304Z" fill="#010A1B"/>
<path d="M14.642 12.3217H13.3574V13.6064H14.642V12.3217Z" fill="#010A1B"/>
<path d="M14.642 5.89116H13.3574V7.17821H14.642V5.89116Z" fill="#010A1B"/>
<path d="M13.3572 13.6064H12.0703V14.8912H13.3572V13.6064Z" fill="#010A1B"/>
<path d="M13.3572 4.60641H12.0703V5.89113H13.3572V4.60641Z" fill="#010A1B"/>
<path d="M9.49877 14.8912H8.21423H6.92969V16.1782H8.21423H9.49877H10.7857H12.0702V14.8912H10.7857H9.49877Z" fill="#010A1B"/>
<path d="M9.49877 4.60654H10.7857H12.0702V3.31949H10.7857H9.49877H8.21423H6.92969V4.60654H8.21423H9.49877Z" fill="#010A1B"/>
<path d="M6.92947 13.6064H5.64258V14.8912H6.92947V13.6064Z" fill="#010A1B"/>
<path d="M6.92947 4.60641H5.64258V5.89113H6.92947V4.60641Z" fill="#010A1B"/>
<path d="M5.64294 12.3217H4.3584V13.6064H5.64294V12.3217Z" fill="#010A1B"/>
<path d="M5.64294 5.89116H4.3584V7.17821H5.64294V5.89116Z" fill="#010A1B"/>
<path d="M4.35817 9.7501V8.46304V7.17833H3.07129V8.46304V9.7501V11.0348V12.3218H4.35817V11.0348V9.7501Z" fill="#010A1B"/>
<path d="M17.2129 5.89116V7.17821V8.46293V9.74997V11.0347V12.3217V13.6064H18.4998V12.3217V11.0347V9.74997V8.46293V7.17821V5.89116H17.2129Z" fill="#010A1B"/>
<path d="M17.2133 13.6064H15.9287V14.8912H17.2133V13.6064Z" fill="#010A1B"/>
<path d="M17.2133 4.60641H15.9287V5.89113H17.2133V4.60641Z" fill="#010A1B"/>
<path d="M15.9284 14.8912H14.6416V16.1782H15.9284V14.8912Z" fill="#010A1B"/>
<path d="M15.9284 3.31949H14.6416V4.60654H15.9284V3.31949Z" fill="#010A1B"/>
<path d="M14.642 16.1783H13.3574V17.463H14.642V16.1783Z" fill="#010A1B"/>
<path d="M14.642 2.03474H13.3574V3.31946H14.642V2.03474Z" fill="#010A1B"/>
<path d="M10.7855 17.4628H9.49856H8.21401H6.92947H5.64258V18.7499H6.92947H8.21401H9.49856H10.7855H12.07H13.3568V17.4628H12.07H10.7855Z" fill="#010A1B"/>
<path d="M8.21401 2.03471H9.49856H10.7855H12.07H13.3568V0.75H12.07H10.7855H9.49856H8.21401H6.92947H5.64258V2.03471H6.92947H8.21401Z" fill="#010A1B"/>
<path d="M5.64294 16.1783H4.3584V17.463H5.64294V16.1783Z" fill="#010A1B"/>
<path d="M5.64294 2.03474H4.3584V3.31946H5.64294V2.03474Z" fill="#010A1B"/>
<path d="M4.35817 14.8912H3.07129V16.1782H4.35817V14.8912Z" fill="#010A1B"/>
<path d="M4.35817 3.31949H3.07129V4.60654H4.35817V3.31949Z" fill="#010A1B"/>
<path d="M3.07165 13.6064H1.78711V14.8912H3.07165V13.6064Z" fill="#010A1B"/>
<path d="M3.07165 4.60641H1.78711V5.89113H3.07165V4.60641Z" fill="#010A1B"/>
<path d="M1.78688 11.0347V9.74997V8.46293V7.17821V5.89116H0.5V7.17821V8.46293V9.74997V11.0347V12.3217V13.6064H1.78688V12.3217V11.0347Z" fill="#010A1B"/>
<mask id="mask1_13_230" style="mask-type:luminance" maskUnits="userSpaceOnUse" x="7" y="6" width="5" height="7">
<path d="M11.6961 6.83336H7.51953V12.6828H11.6961V6.83336Z" fill="white"/>
</mask>
<g mask="url(#mask1_13_230)">
<path d="M10.8632 11.8495V12.6828H7.51953V6.83336H10.8632V7.66652L10.8647 7.66508H8.35831V9.33882H8.43399L10.8648 9.34002L10.8632 9.33846V10.1769L10.8647 10.1753H8.35843V11.8491H8.4341C9.05912 11.8491 9.68419 11.8491 10.3094 11.8491C10.4946 11.8491 10.68 11.8501 10.8648 11.8506L10.8632 11.8495Z" fill="#C47565"/>
<path d="M10.8636 7.66672H11.6964V9.33902H10.8636L10.8652 9.34057C10.8645 9.28498 10.8633 9.22927 10.8633 9.1732C10.8637 8.67036 10.8644 8.16757 10.8651 7.66481L10.8636 7.66672Z" fill="#C47565"/>
<path d="M10.8636 10.1773H11.6963V11.8496H10.8636L10.8652 11.8511C10.8645 11.8151 10.8633 11.7793 10.8633 11.7434C10.8637 11.2208 10.8644 10.6981 10.8651 10.1754L10.8636 10.1773Z" fill="#C47565"/>
</g>
</g>
</svg>
