<svg width="31" height="31" viewBox="0 0 31 31" fill="none" xmlns="http://www.w3.org/2000/svg">
<g clip-path="url(#clip0_5_2170)">
<mask id="mask0_5_2170" style="mask-type:luminance" maskUnits="userSpaceOnUse" x="0" y="0" width="31" height="31">
<path d="M30.5 0.5H0.5V30.5H30.5V0.5Z" fill="white"/>
</mask>
<g mask="url(#mask0_5_2170)">
<path d="M19.784 17.6412H17.6431V19.7862H19.784V17.6412Z" fill="#FF7774"/>
<path d="M19.784 6.92737H17.6431V9.06856H19.784V6.92737Z" fill="#FF7774"/>
<path d="M17.6429 19.7861H15.498V21.9274H17.6429V19.7861Z" fill="#FF7774"/>
<path d="M17.6429 6.92737H15.498V9.06856H17.6429V6.92737Z" fill="#FF7774"/>
<path d="M15.4978 19.7861H13.3569V21.9274H15.4978V19.7861Z" fill="#FF7774"/>
<path d="M15.4978 6.92737H13.3569V9.06856H15.4978V6.92737Z" fill="#FF7774"/>
<path d="M13.3572 6.92737H11.2163V9.06856H13.3572V6.92737Z" fill="#FF7774"/>
<path d="M11.2161 9.0686H9.07129V11.2137H11.2161V9.0686Z" fill="#FF7774"/>
<path d="M9.07157 17.6412H6.93066V19.7862H9.07157V17.6412Z" fill="#FF7774"/>
<path d="M9.07157 15.5H6.93066V17.6412H9.07157V15.5Z" fill="#FF7774"/>
<path d="M9.07157 13.3547H6.93066V15.4998H9.07157V13.3547Z" fill="#FF7774"/>
<path d="M9.07157 11.2139H6.93066V13.3551H9.07157V11.2139Z" fill="#FF7774"/>
<path d="M26.2146 9.06869V6.9275H24.0697V4.78243H21.9288V2.64124H9.05995V4.78243H6.93073V6.9275H4.78592V9.06869H2.64502V21.9392H4.78592V26.2294H9.07555V28.3706H21.9444V26.2137H24.0853V24.0687H26.2302V21.9275H28.371V9.05699L26.2146 9.06869ZM26.2146 13.3589V19.7901H24.0697V21.9314H21.9288V24.0727H19.7839V26.2176H11.2048V24.0727H9.05995V21.9314H6.93073V19.7901H4.78592V11.2099H6.93073V9.06479H9.07165V6.9275H11.2165V4.78243H19.7956V6.9275H21.9405V9.06869H24.0814V11.2138H26.2263L26.2146 13.3589Z" fill="#FFD393"/>
<path d="M24.0694 15.4998V11.2097H21.9284V9.06458H11.2161V11.2097H9.07129V21.9234H11.2161V24.0645H19.7954V21.9234H21.9401V19.7822H24.0811V15.492L24.0694 15.4998ZM17.6428 19.79V21.9312H13.3531V17.6409H11.2161V13.3508H13.357V11.2136H17.6467V13.3547H19.7876V19.7861L17.6428 19.79Z" fill="#FFD393"/>
<path d="M28.3553 19.7861H26.2144V21.9274H28.3553V19.7861Z" fill="#FFBE82"/>
<path d="M28.3553 17.6412H26.2144V19.7862H28.3553V17.6412Z" fill="#C47565"/>
<path d="M28.3553 15.5H26.2144V17.6412H28.3553V15.5Z" fill="#FFBE82"/>
<path d="M28.3553 13.3547H26.2144V15.4998H28.3553V13.3547Z" fill="#C47565"/>
<path d="M28.3553 11.2139H26.2144V13.3551H28.3553V11.2139Z" fill="#FFBE82"/>
<path d="M28.3553 9.0686H26.2144V11.2137H28.3553V9.0686Z" fill="#FFBE82"/>
<path d="M26.214 21.9273H24.0693V24.0686H26.214V21.9273Z" fill="#C47565"/>
<path d="M26.214 19.7861H24.0693V21.9274H26.214V19.7861Z" fill="#FFBE82"/>
<path d="M24.0697 24.0686H21.9287V26.2138H24.0697V24.0686Z" fill="#C47565"/>
<path d="M24.0697 21.9273H21.9287V24.0686H24.0697V21.9273Z" fill="#FFBE82"/>
<path d="M24.0697 15.5H21.9287V17.6412H24.0697V15.5Z" fill="#F0916C"/>
<path d="M24.0697 13.3547H21.9287V15.4998H24.0697V13.3547Z" fill="#F0916C"/>
<path d="M24.0697 4.78247H21.9287V6.92756H24.0697V4.78247Z" fill="#F0916C"/>
<path d="M21.9285 26.2139H19.7837V28.355H21.9285V26.2139Z" fill="#F0916C"/>
<path d="M21.9285 24.0686H19.7837V26.2138H21.9285V24.0686Z" fill="#FFBE82"/>
<path d="M19.784 17.6412H17.6431V19.7862H19.784V17.6412Z" fill="#C47565"/>
<path d="M19.784 15.5H17.6431V17.6412H19.784V15.5Z" fill="#FFEAC8"/>
<path d="M19.784 13.3547H17.6431V15.4998H19.784V13.3547Z" fill="#FFEAC8"/>
<path d="M19.784 6.92737H17.6431V9.06856H19.784V6.92737Z" fill="#C47565"/>
<path d="M17.6429 19.7861H15.498V21.9274H17.6429V19.7861Z" fill="#C47565"/>
<path d="M17.6429 17.6412H15.498V19.7862H17.6429V17.6412Z" fill="#FFEAC8"/>
<path d="M17.6429 15.5H15.498V17.6412H17.6429V15.5Z" fill="#FFEAC8"/>
<path d="M17.6429 13.3547H15.498V15.4998H17.6429V13.3547Z" fill="#FFEAC8"/>
<path d="M17.6429 11.2139H15.498V13.3551H17.6429V11.2139Z" fill="#FFEAC8"/>
<path d="M17.6429 6.92737H15.498V9.06856H17.6429V6.92737Z" fill="#C47565"/>
<path d="M15.4978 19.7861H13.3569V21.9274H15.4978V19.7861Z" fill="#C47565"/>
<path d="M15.4978 17.6412H13.3569V19.7862H15.4978V17.6412Z" fill="#FFEAC8"/>
<path d="M15.4978 15.5H13.3569V17.6412H15.4978V15.5Z" fill="#FFEAC8"/>
<path d="M15.4978 13.3547H13.3569V15.4998H15.4978V13.3547Z" fill="#FFD393"/>
<path d="M15.4978 11.2139H13.3569V13.3551H15.4978V11.2139Z" fill="#FFEAC8"/>
<path d="M15.4978 6.92737H13.3569V9.06856H15.4978V6.92737Z" fill="#C47565"/>
<path d="M13.3572 15.5H11.2163V17.6412H13.3572V15.5Z" fill="#FFEAC8"/>
<path d="M13.3572 13.3547H11.2163V15.4998H13.3572V13.3547Z" fill="#FFEAC8"/>
<path d="M13.3572 6.92737H11.2163V9.06856H13.3572V6.92737Z" fill="#C47565"/>
<path d="M11.2161 9.0686H9.07129V11.2137H11.2161V9.0686Z" fill="#C47565"/>
<path d="M9.07157 24.0686H6.93066V26.2138H9.07157V24.0686Z" fill="#FFBE82"/>
<path d="M9.07157 17.6412H6.93066V19.7862H9.07157V17.6412Z" fill="#C47565"/>
<path d="M9.07157 15.5H6.93066V17.6412H9.07157V15.5Z" fill="#C47565"/>
<path d="M9.07157 13.3547H6.93066V15.4998H9.07157V13.3547Z" fill="#C47565"/>
<path d="M9.07157 11.2139H6.93066V13.3551H9.07157V11.2139Z" fill="#C47565"/>
<path d="M11.2161 2.64124H9.07129V4.78243H11.2161V2.64124Z" fill="#FFEAC8"/>
<path d="M9.07157 4.78247H6.93066V6.92756H9.07157V4.78247Z" fill="#FFEAC8"/>
<path d="M6.93045 6.92737H4.78564V9.06856H6.93045V6.92737Z" fill="#FFEAC8"/>
<path d="M2.64502 11.2137V13.3549V15.5V17.6411V19.7863H4.78592V17.6411V15.5V13.3549V11.2137V9.0686H2.64502V11.2137Z" fill="#FFEAC8"/>
<path d="M26.214 17.6412H24.0693V19.7862H26.214V17.6412Z" fill="#C47565"/>
<path d="M26.214 15.5H24.0693V17.6412H26.214V15.5Z" fill="#C47565"/>
<path d="M26.214 13.3547H24.0693V15.4998H26.214V13.3547Z" fill="#C47565"/>
<path d="M26.214 11.2139H24.0693V13.3551H26.214V11.2139Z" fill="#C47565"/>
<path d="M24.0697 19.7861H21.9287V21.9274H24.0697V19.7861Z" fill="#C47565"/>
<path d="M24.0697 15.5H21.9287V17.6412H24.0697V15.5Z" fill="#FFBE82"/>
<path d="M24.0697 13.3547H21.9287V15.4998H24.0697V13.3547Z" fill="#FFBE82"/>
<path d="M24.0697 9.0686H21.9287V11.2137H24.0697V9.0686Z" fill="#C47565"/>
<path d="M21.9285 21.9273H19.7837V24.0686H21.9285V21.9273Z" fill="#C47565"/>
<path d="M21.9285 19.7861H19.7837V21.9274H21.9285V19.7861Z" fill="#FFBE82"/>
<path d="M21.9285 11.2139H19.7837V13.3551H21.9285V11.2139Z" fill="#FFBE82"/>
<path d="M21.9285 6.92737H19.7837V9.06856H21.9285V6.92737Z" fill="#C47565"/>
<path d="M19.784 24.0686H17.6431V26.2138H19.784V24.0686Z" fill="#C47565"/>
<path d="M19.784 15.5H17.6431V17.6412H19.784V15.5Z" fill="#FFD393"/>
<path d="M19.784 13.3547H17.6431V15.4998H19.784V13.3547Z" fill="#FFD393"/>
<path d="M19.784 4.78247H17.6431V6.92756H19.784V4.78247Z" fill="#C47565"/>
<path d="M17.6429 24.0686H15.498V26.2138H17.6429V24.0686Z" fill="#C47565"/>
<path d="M17.6429 17.6412H15.498V19.7862H17.6429V17.6412Z" fill="#FFD393"/>
<path d="M17.6429 15.5H15.498V17.6412H17.6429V15.5Z" fill="#FFBE82"/>
<path d="M17.6429 13.3547H15.498V15.4998H17.6429V13.3547Z" fill="#FFBE82"/>
<path d="M17.6429 11.2139H15.498V13.3551H17.6429V11.2139Z" fill="#FFD393"/>
<path d="M17.6429 4.78247H15.498V6.92756H17.6429V4.78247Z" fill="#C47565"/>
<path d="M15.4978 24.0686H13.3569V26.2138H15.4978V24.0686Z" fill="#C47565"/>
<path d="M15.4978 17.6412H13.3569V19.7862H15.4978V17.6412Z" fill="#FFD393"/>
<path d="M15.4978 15.5H13.3569V17.6412H15.4978V15.5Z" fill="#FFBE82"/>
<path d="M15.4978 11.2139H13.3569V13.3551H15.4978V11.2139Z" fill="#FFD393"/>
<path d="M15.4978 4.78247H13.3569V6.92756H15.4978V4.78247Z" fill="#C47565"/>
<path d="M13.3572 24.0686H11.2163V26.2138H13.3572V24.0686Z" fill="#C47565"/>
<path d="M13.3572 21.9273H11.2163V24.0686H13.3572V21.9273Z" fill="#FFBE82"/>
<path d="M13.3572 15.5H11.2163V17.6412H13.3572V15.5Z" fill="#FFD393"/>
<path d="M13.3572 13.3547H11.2163V15.4998H13.3572V13.3547Z" fill="#FFD393"/>
<path d="M13.3572 4.78247H11.2163V6.92756H13.3572V4.78247Z" fill="#C47565"/>
<path d="M11.2161 21.9273H9.07129V24.0686H11.2161V21.9273Z" fill="#C47565"/>
<path d="M11.2161 6.92737H9.07129V9.06856H11.2161V6.92737Z" fill="#C47565"/>
<path d="M9.07157 19.7861H6.93066V21.9274H9.07157V19.7861Z" fill="#C47565"/>
<path d="M28.3553 17.6412H26.2144V19.7862H28.3553V17.6412Z" fill="#FFAF7C"/>
<path d="M28.3553 13.3547H26.2144V15.4998H28.3553V13.3547Z" fill="#FFAF7C"/>
<path d="M26.214 21.9273H24.0693V24.0686H26.214V21.9273Z" fill="#FFAF7C"/>
<path d="M24.0697 24.0686H21.9287V26.2138H24.0697V24.0686Z" fill="#FFAF7C"/>
<path d="M19.784 17.6412H17.6431V19.7862H19.784V17.6412Z" fill="#FFAF7C"/>
<path d="M15.4981 6.92737H13.3572H11.2163V9.06856H13.3572H15.4981H17.643H19.7839V6.92737H17.643H15.4981Z" fill="#FFAF7C"/>
<path d="M13.3569 19.7861V21.9274H15.4978H17.6427V19.7861H15.4978H13.3569Z" fill="#FFAF7C"/>
<path d="M11.2161 9.0686H9.07129V11.2137H11.2161V9.0686Z" fill="#FFAF7C"/>
<path d="M6.93066 13.3551V15.5001V17.6414V19.7864H9.07157V17.6414V15.5001V13.3551V11.2139H6.93066V13.3551Z" fill="#FFAF7C"/>
<path d="M9.07157 9.0686H6.93066V11.2137H9.07157V9.0686Z" fill="#C47565"/>
<path d="M6.93045 17.6412H4.78564V19.7862H6.93045V17.6412Z" fill="#C47565"/>
<path d="M6.93045 15.5H4.78564V17.6412H6.93045V15.5Z" fill="#C47565"/>
<path d="M6.93045 13.3547H4.78564V15.4998H6.93045V13.3547Z" fill="#C47565"/>
<path d="M6.93045 11.2139H4.78564V13.3551H6.93045V11.2139Z" fill="#C47565"/>
<path d="M24.0693 13.3551V15.5001V17.6414V19.7864H26.214V17.6414V15.5001V13.3551V11.2139H24.0693V13.3551Z" fill="#010A1B"/>
<path d="M24.0697 19.7861H21.9287V21.9274H24.0697V19.7861Z" fill="#010A1B"/>
<path d="M24.0697 9.0686H21.9287V11.2137H24.0697V9.0686Z" fill="#010A1B"/>
<path d="M21.9285 21.9273H19.7837V24.0686H21.9285V21.9273Z" fill="#010A1B"/>
<path d="M21.9285 6.92737H19.7837V9.06856H21.9285V6.92737Z" fill="#010A1B"/>
<path d="M15.4981 24.0686H13.3572H11.2163V26.2138H13.3572H15.4981H17.643H19.7839V24.0686H17.643H15.4981Z" fill="#010A1B"/>
<path d="M15.4981 6.92756H17.643H19.7839V4.78247H17.643H15.4981H13.3572H11.2163V6.92756H13.3572H15.4981Z" fill="#010A1B"/>
<path d="M11.2161 21.9273H9.07129V24.0686H11.2161V21.9273Z" fill="#010A1B"/>
<path d="M11.2161 6.92737H9.07129V9.06856H11.2161V6.92737Z" fill="#010A1B"/>
<path d="M9.07157 19.7861H6.93066V21.9274H9.07157V19.7861Z" fill="#010A1B"/>
<path d="M9.07157 9.0686H6.93066V11.2137H9.07157V9.0686Z" fill="#010A1B"/>
<path d="M6.93045 15.5001V13.3551V11.2139H4.78564V13.3551V15.5001V17.6414V19.7864H6.93045V17.6414V15.5001Z" fill="#010A1B"/>
<path d="M28.355 9.0686V11.2137V13.3549V15.5V17.6411V19.7863V21.9274H30.4998V19.7863V17.6411V15.5V13.3549V11.2137V9.0686H28.355Z" fill="#010A1B"/>
<path d="M28.3553 21.9273H26.2144V24.0686H28.3553V21.9273Z" fill="#010A1B"/>
<path d="M28.3553 6.92737H26.2144V9.06856H28.3553V6.92737Z" fill="#010A1B"/>
<path d="M26.214 24.0686H24.0693V26.2138H26.214V24.0686Z" fill="#010A1B"/>
<path d="M26.214 4.78247H24.0693V6.92756H26.214V4.78247Z" fill="#010A1B"/>
<path d="M24.0697 26.2139H21.9287V28.355H24.0697V26.2139Z" fill="#010A1B"/>
<path d="M24.0697 2.64124H21.9287V4.78243H24.0697V2.64124Z" fill="#010A1B"/>
<path d="M17.6428 28.3547H15.4979H13.357H11.2161H9.07129V30.4999H11.2161H13.357H15.4979H17.6428H19.7837H21.9284V28.3547H19.7837H17.6428Z" fill="#010A1B"/>
<path d="M13.357 2.64119H15.4979H17.6428H19.7837H21.9284V0.5H19.7837H17.6428H15.4979H13.357H11.2161H9.07129V2.64119H11.2161H13.357Z" fill="#010A1B"/>
<path d="M9.07157 26.2139H6.93066V28.355H9.07157V26.2139Z" fill="#010A1B"/>
<path d="M9.07157 2.64124H6.93066V4.78243H9.07157V2.64124Z" fill="#010A1B"/>
<path d="M6.93045 24.0686H4.78564V26.2138H6.93045V24.0686Z" fill="#010A1B"/>
<path d="M6.93045 4.78247H4.78564V6.92756H6.93045V4.78247Z" fill="#010A1B"/>
<path d="M4.78592 21.9273H2.64502V24.0686H4.78592V21.9273Z" fill="#010A1B"/>
<path d="M4.78592 6.92737H2.64502V9.06856H4.78592V6.92737Z" fill="#010A1B"/>
<path d="M2.6448 17.6411V15.5V13.3549V11.2137V9.0686H0.5V11.2137V13.3549V15.5V17.6411V19.7863V21.9274H2.6448V19.7863V17.6411Z" fill="#010A1B"/>
</g>
</g>
<defs>
<clipPath id="clip0_5_2170">
<rect width="30" height="30" fill="white" transform="translate(0.5 0.5)"/>
</clipPath>
</defs>
</svg>
