<svg width="24" height="24" viewBox="0 0 24 24" fill="none" xmlns="http://www.w3.org/2000/svg">
<g clip-path="url(#clip0_5_2549)">
<path d="M6.19336 16.9122V17.6652L5.01611 18.4076V17.3576L6.19336 16.9122Z" fill="#EF8B07"/>
<path d="M10.2925 10.798L10.3349 15.2418L19.4983 16.9599L20.1028 12.4843L10.2925 10.798Z" fill="#BCBBBB"/>
<path d="M19.5724 17.0607L10.2499 15.316L10.2021 10.6919L20.1981 12.41L19.5724 17.0607ZM10.4196 15.1729L19.4239 16.8591L20.0072 12.5585L10.3772 10.8987L10.4196 15.1729Z" fill="#605F60"/>
<path d="M4.48584 12.532L4.7775 17.2993L14.1636 19.6114L14.1477 14.4198L4.48584 12.532Z" fill="#A0444B"/>
<g opacity="0.68">
<path d="M12.631 19.2348L12.509 15.788L6.30469 14.3721L6.38423 17.6758L12.631 19.2348Z" fill="#D86318"/>
</g>
<path d="M10.2024 10.7926L10.2395 14.1812L4.41162 12.8502L10.2024 10.7926Z" fill="#BCBBBB"/>
<path d="M10.3243 14.2873L4.104 12.8661L10.2872 10.6706L10.3243 14.2873ZM4.72444 12.8343L10.1493 14.0751L10.1174 10.9199L4.72444 12.8343Z" fill="#605F60"/>
<path d="M21.354 11.4502L10.0059 9.21773L10.2286 10.0874L20.2086 12.0441L21.3434 11.5722L21.354 11.4502Z" fill="#FFFDFD"/>
<path d="M20.2138 12.1343L20.1873 12.129L10.1595 10.1669L9.88379 9.10634L21.4441 11.3813L21.4229 11.6358L20.2138 12.1343ZM10.3027 10.0131L20.1979 11.9487L21.2479 11.5138L10.1224 9.32375L10.3027 10.0131Z" fill="#605F60"/>
<path d="M10.234 10.0025L10.2021 10.7927L20.5269 12.7176L20.5534 12.0547L10.234 10.0025Z" fill="#FFFDFD"/>
<path d="M20.6116 12.8183L10.1172 10.8616L10.1543 9.89642L10.255 9.91765L20.6434 11.9858L20.6116 12.8183ZM10.2921 10.7237L20.4419 12.6168L20.4631 12.129L10.3187 10.1085L10.2921 10.7237Z" fill="#605F60"/>
<path d="M2.35394 11.7154L2.34863 11.6729L10.0219 9.21773L10.2287 10.0874L4.74554 12.0654L2.35394 11.7154Z" fill="#FFFDFD"/>
<path d="M4.75596 12.1555L2.27421 11.7896L2.2583 11.6146L10.0853 9.10634L10.3346 10.1457L4.75596 12.1555ZM2.65071 11.6676L4.74005 11.9752L10.1278 10.0343L9.95807 9.32905L2.65071 11.6676Z" fill="#605F60"/>
<path d="M10.234 10.0025L10.2022 10.7927L4.438 13.1365L4.40088 12.007L10.234 10.0025Z" fill="#FFFDFD"/>
<path d="M4.35834 13.2638L4.31592 11.9487L10.3241 9.88055L10.287 10.851L4.35834 13.2638ZM4.49091 12.0706L4.52273 13.0093L10.1173 10.7343L10.1385 10.1245L4.49091 12.0706Z" fill="#605F60"/>
<path d="M14.6356 19.7121L19.4983 16.9599L20.1028 12.4842L14.6196 14.4782L14.6356 19.7121Z" fill="#8A3235"/>
<path d="M3.15479 12.2615L3.55781 17.5114L5.0161 17.872L4.8305 12.5002L3.15479 12.2615Z" fill="#FFCB48"/>
<path d="M5.01568 17.872L5.75808 17.5432L5.67854 12.3623L4.83008 12.5002L5.01568 17.872Z" fill="#F0A006"/>
<path d="M12.4668 14.266L12.6471 19.6591L14.5296 20.1417L14.6198 14.4782L12.4668 14.266Z" fill="#FFCB48"/>
<path d="M14.5293 20.1417L16.03 19.3356L16.2368 14.0646L14.6141 14.563L14.5293 20.1417Z" fill="#EF8B07"/>
<path d="M19.2704 12.7971L18.9204 17.3894L19.3923 17.5167L19.7476 12.6858L19.2704 12.7971Z" fill="#A82502"/>
<path d="M19.3921 17.5167L20.2777 16.9917L20.7974 12.4683L19.7527 12.6009L19.3921 17.5167Z" fill="#EF8B07"/>
<path d="M2.35375 11.7153L2.2583 11.7047L5.24383 11.6199L15.9822 13.6615L14.5875 14.2183L2.35375 11.7153Z" fill="#FFFDFD"/>
<path d="M14.5932 14.3084L14.5667 14.3031L2.33819 11.8002L2.24805 11.7896L2.25335 11.6146L5.24949 11.535H5.26009L16.2954 13.6297L14.5932 14.3084ZM3.05409 11.7684L14.5826 14.1282L15.6803 13.688L5.23357 11.7047L3.05409 11.7684Z" fill="#605F60"/>
<path d="M14.5771 13.3221L14.5877 14.2183L21.4391 11.5404L21.3754 11.5722L18.8354 11.7313L14.5771 13.3221Z" fill="#FFFDFD"/>
<path d="M14.5028 14.3455L14.4922 13.2638L18.8194 11.6464L21.3382 11.4873L21.4125 11.4608L21.4814 11.6199L21.4019 11.6623H21.3754L14.5028 14.3455ZM14.6619 13.3804L14.6672 14.091L20.8079 11.6941L18.8565 11.8161L14.6619 13.3804Z" fill="#605F60"/>
<path d="M20.654 9.85932L9.12549 7.79649L9.36943 8.66616L19.5033 10.4692L20.6487 9.98129L20.654 9.85932Z" fill="#FFFDFD"/>
<path d="M19.5142 10.5593L9.30089 8.74043L9.00391 7.6851L20.7445 9.7851L20.7286 10.0396L19.5142 10.5593ZM9.43344 8.59193L19.493 10.3843L20.5536 9.93353L9.24255 7.90787L9.43344 8.59193Z" fill="#605F60"/>
<path d="M2.12061 10.5222L2.26379 11.8214L14.6142 14.3986L14.6514 12.8449L2.12061 10.5222Z" fill="#FFCB48"/>
<path d="M14.6143 14.3986L21.508 11.535L21.6141 10.1192L21.5452 10.0661L14.6514 12.8449L14.6143 14.3986Z" fill="#EF8B07"/>
<path d="M19.4982 9.45102L14.4551 11.9434L14.471 12.0176L5.57809 10.4692L10.059 8.77754L9.83633 7.90788L2.13121 10.501L2.12061 10.5169L2.14182 10.5434L14.5188 12.8289L14.6142 12.8661L14.6514 12.8449L21.5451 10.1139V10.0662L19.4982 9.45102Z" fill="#FCEC9F"/>
<path d="M4.13017 7.39877L13.8398 8.32677L13.8769 11.954L4.11426 10.1987L4.13017 7.39877Z" fill="#A0444B"/>
<path d="M4.21533 7.30332L8.08644 4.42386L16.2105 5.29884L13.9037 8.62904L4.21533 7.30332Z" fill="#B5616A"/>
<path d="M8.08643 4.42386L10.9235 3.88297L17.6422 4.50871L16.2104 5.29884L8.08643 4.42386Z" fill="#F2933D"/>
<path d="M11.0506 3.91481L10.3242 3.51709L8.28787 3.86708L4.81445 7.40412L4.9152 10.7025L5.66291 10.5169L5.64701 7.54726L8.5424 4.36555L11.0506 3.91481Z" fill="#F0A006"/>
<path d="M4.91506 10.7025L4.81431 7.40412L2.90527 6.97987L3.08557 10.3737L4.91506 10.7025Z" fill="#FFCB48"/>
<path d="M4.8146 7.40412L2.90025 7.07003L2.88965 6.97458L6.2888 3.66025L8.02813 3.2095L10.2289 3.45874L10.3243 3.51707L8.19786 3.95191L4.8146 7.40412Z" fill="#FCEC9F"/>
<path d="M17.5945 5.69127L19.4028 5.42082L20.8081 7.65864L20.2778 10.0396L15.7173 11.7207L15.7597 8.31089L17.5945 5.69127Z" fill="#8A3235"/>
<g opacity="0.81">
<path d="M16.4756 18.6886L16.6028 15.4645L18.8672 14.3933L18.6604 17.3788L16.4756 18.6886Z" fill="#B2483E"/>
</g>
<path d="M4.87305 13.6297L5.7003 13.7623L4.89956 14.2342L4.87305 13.6297Z" fill="#CE5F02"/>
<g opacity="0.63">
<path d="M3.229 13.2638L3.29264 13.8683L4.85169 14.2024L4.78806 13.5395L3.229 13.2638Z" fill="#F0A006"/>
</g>
<g opacity="0.63">
<path d="M12.514 15.1993L12.498 16.1326L14.5291 16.594L14.5715 15.4698L12.514 15.1993Z" fill="#F0A006"/>
</g>
<path d="M2.26904 11.71L2.39101 13.0145L14.6142 15.7774L14.5877 14.2183L2.26904 11.71Z" fill="#FFCB48"/>
<path d="M14.6458 14.3933L2.17871 11.8161L14.6829 14.2236L14.6458 14.3933Z" fill="#E57C13"/>
<path d="M14.5293 16.594L16.1679 15.8675L16.2103 14.7539L14.577 15.2789L14.5293 16.594Z" fill="#CE5F02"/>
<path d="M20.7655 12.7494L20.6435 13.7782L19.6519 14.2448L19.7261 13.3168L20.7655 12.7494Z" fill="#CE5F02"/>
<g opacity="0.36">
<path d="M19.7371 13.0252L19.6363 14.2607L19.1855 13.9691L19.2174 13.0994L19.7371 13.0252Z" fill="#5E0F00"/>
</g>
<path d="M14.5239 15.7721L14.6087 15.7826L21.3911 12.7494L21.5237 11.5457L14.5876 14.2183L14.5239 15.7721Z" fill="#EF8B07"/>
<path d="M21.5822 11.5722L14.7256 14.266L21.5186 11.4131L21.5822 11.5722Z" fill="#CE4819"/>
<path d="M6.28852 3.66028L8.19756 3.95193L4.81431 7.40413L4.85673 8.87835L4.46962 7.39884L3.21284 7.12308L2.9583 8.37982L2.90527 6.97988L6.28852 3.66028Z" fill="#FEE007"/>
<g opacity="0.78">
<path d="M15.0277 5.20868L8.90816 4.48749L8.18699 5.32534L10.499 5.54276C10.499 5.54276 8.818 5.72306 8.00668 5.52685L7.16354 6.49728C7.16354 6.49728 8.12336 6.81544 8.80742 6.84196C8.80742 6.84196 10.0748 7.17605 10.9233 7.33513C10.9233 7.33513 8.46803 7.10184 6.96729 6.68288L6.13477 7.53667L12.4982 8.47525L15.0277 5.20868Z" fill="#F1862A"/>
</g>
<path d="M12.4931 8.47527L6.12962 7.53668L6.0872 8.58665C6.0872 8.58665 6.68109 8.85176 7.5614 8.98967C7.5614 8.98967 6.66522 8.94721 6.07129 8.89422L6.0925 10.5487L12.6363 11.7631L12.4931 8.47527Z" fill="#D86318"/>
<g opacity="0.47">
<path d="M14.805 5.14506L9.59218 4.56705C9.59218 4.56705 9.4331 5.19279 11.0717 5.69656C11.0717 5.69656 8.78085 5.67004 8.73845 6.10488C8.73845 6.10488 8.2771 6.77834 11.3103 7.43594C11.3103 7.43594 8.55815 7.26092 7.30135 6.83139C7.30135 6.83139 6.76578 6.8208 6.66504 7.29803C6.66504 7.29803 7.85285 7.35108 9.54448 8.01391L12.4982 8.47526L14.805 5.14506Z" fill="#FAA753"/>
</g>
<g opacity="0.74">
<path d="M8.95068 4.45568L11.7877 3.91478L18.5065 4.54583L17.0747 5.33065L8.95068 4.45568Z" fill="#F9C18F"/>
</g>
<g opacity="0.68">
<path d="M17.2232 4.39206L12.0688 3.99434C12.0688 3.98904 15.6324 5.06552 17.2232 4.39206Z" fill="#FCEC24"/>
</g>
<path d="M12.8485 6.50258C12.8485 6.50258 10.5311 5.85033 9.52354 6.13138C9.52354 6.13138 8.65388 6.53969 11.2841 7.24498C11.2841 7.24498 12.9598 7.60559 11.9576 6.86319C11.9576 6.86319 11.3477 6.32227 10.5364 6.41772C10.5364 6.41772 11.1993 6.46018 11.7561 7.00104C11.7561 7.00104 11.9735 7.33513 10.3561 6.80486C10.3561 6.80486 9.49172 6.53439 10.1175 6.23212C10.1175 6.23212 10.9288 6.14199 12.4773 6.58744C12.4826 6.58215 13.1931 6.7571 12.8485 6.50258Z" fill="#FAA753"/>
<path d="M14.7098 5.34128C14.7098 5.34128 11.8621 5.06022 10.7803 4.99129C10.7803 4.99129 10.9712 5.21931 13.1613 5.5587C13.1613 5.5587 12.8749 5.51097 12.5355 5.47915C11.984 5.42612 11.2841 5.41552 11.4166 5.70718C11.4166 5.70718 11.6022 6.09959 13.0499 6.16856C13.0499 6.16856 13.2621 6.03065 12.753 6.05187C12.753 6.05187 11.7348 5.86627 12.0053 5.72308C12.0053 5.72308 12.6893 5.54809 13.5219 5.73899C13.5219 5.73899 13.8082 5.96702 13.0446 5.82384C13.0446 5.82384 12.6999 5.72308 12.5992 5.77612C12.5992 5.77612 12.0742 5.88748 14.0893 6.02005L14.7098 5.34128Z" fill="#FAA753"/>
<g opacity="0.4">
<path d="M12.6892 9.10105C12.6892 9.10105 9.99005 8.48591 7.81055 8.44345C7.81055 8.44345 10.5574 9.14345 12.6839 9.40862L12.6892 9.10105Z" fill="#FAA753"/>
</g>
<g opacity="0.31">
<path d="M12.6096 11.2434C12.6096 11.2434 9.90509 10.6495 7.72559 10.6283C7.72559 10.6283 10.4778 11.3017 12.6096 11.551V11.2434Z" fill="#FAA753"/>
</g>
<path d="M12.1484 8.27908L15.0385 4.60416L16.9582 4.11629L19.3073 4.36023L19.2702 4.46628L17.8067 4.80036L14.7681 8.63964L12.1484 8.27908Z" fill="#FEE007"/>
<path d="M15.0386 4.60414L17.6317 4.87989L19.4029 4.38142L16.9635 4.03143L15.0386 4.60414Z" fill="#FCEC9F"/>
<path d="M19.4027 4.38145L17.6315 4.78978L14.593 8.62904L14.5347 12.4153L20.983 9.98129L21.3224 6.92153L19.4027 4.38145ZM19.8641 9.4616L16.1361 10.8245L16.2157 8.79877L18.1088 6.07308L19.0421 5.79733L20.1875 7.82301L19.8641 9.4616Z" fill="#EF8B07"/>
<path d="M19.2382 5.74962L20.3783 7.39882L20.1237 9.38738L19.7101 9.28135L19.9381 7.46775L18.814 5.86098L19.2382 5.74962Z" fill="#A82502"/>
<g opacity="0.81">
<path d="M18.3895 6.38597L18.7979 6.29047L19.6888 7.54197L19.4713 9.39797L16.6343 10.3578L16.6873 8.9101L18.3895 6.38597Z" fill="#B2483E"/>
</g>
<path d="M19.7104 9.28136L20.1293 9.38739L16.1362 10.8245L16.1468 10.5328L19.7104 9.28136Z" fill="#FCEC9F"/>
<g opacity="0.5">
<path d="M12.2702 10.1351C12.2702 10.1351 8.80207 9.35557 6.01807 9.36087C6.01807 9.36087 9.54976 10.2623 12.2808 10.5699L12.2702 10.1351Z" fill="#B94B14"/>
</g>
<path d="M12.1484 8.27908L12.1431 11.9752L14.5346 12.4153L14.593 8.62905L12.1484 8.27908Z" fill="#FFCB48"/>
<g opacity="0.29">
<path d="M12.5831 16.2865C12.5831 16.2865 9.91046 15.5705 7.73096 15.4486C7.73096 15.4486 10.4513 16.2493 12.5672 16.594L12.5831 16.2865Z" fill="#FAA753"/>
</g>
<g opacity="0.83">
<path d="M12.5883 17.4319C12.5883 17.4319 9.17324 16.4402 6.39453 16.2758C6.39453 16.2758 9.86259 17.3895 12.5671 17.8667L12.5883 17.4319Z" fill="#B94B14"/>
</g>
<g opacity="0.6">
<path d="M6.35778 16.7372C6.35778 16.7372 9.84707 17.4213 12.3925 18.5508C12.3925 18.5508 8.97212 17.9569 6.34717 17.1402L6.35778 16.7372Z" fill="#B94B14"/>
</g>
<path d="M12.1431 10.6707L12.1484 8.27908L12.5036 8.30031L12.1431 10.6707Z" fill="white"/>
<path d="M14.2905 8.58664L14.5928 8.62904L14.5504 11.4449L14.2905 8.58664Z" fill="white"/>
<path d="M12.3232 8.28436C12.5088 8.29501 12.6944 8.31089 12.8748 8.32683C13.0604 8.3427 13.2407 8.36393 13.4263 8.37981C13.6119 8.40104 13.7922 8.42227 13.9778 8.44344C14.1634 8.46467 14.3437 8.4859 14.524 8.51242L14.4179 8.55482C14.6618 8.23667 14.9111 7.91846 15.1656 7.60559C15.4202 7.29273 15.6747 6.97987 15.9345 6.6723C16.1944 6.36473 16.4542 6.05717 16.7247 5.76021L16.9262 5.53219L17.1277 5.30946C17.2656 5.16098 17.4034 5.0125 17.5413 4.86932C17.4299 5.03902 17.3133 5.2034 17.1966 5.3678L17.0216 5.61173L16.8413 5.85566C16.6027 6.17913 16.3588 6.50264 16.1095 6.8155C15.8656 7.13366 15.6111 7.44652 15.3565 7.75938C15.1019 8.07224 14.8474 8.37981 14.5823 8.68738L14.5399 8.74043L14.4762 8.72984C14.2959 8.69802 14.1156 8.66092 13.93 8.6291C13.7498 8.59722 13.5695 8.56012 13.3891 8.52301C13.2088 8.4859 13.0285 8.44879 12.8482 8.40633C12.6839 8.36923 12.5035 8.32682 12.3232 8.28436Z" fill="white"/>
<path d="M6.19306 3.82993C6.13473 3.90417 6.0764 3.97841 6.01807 4.04735C5.95974 4.12159 5.9014 4.19052 5.83777 4.25946C5.72111 4.40264 5.59383 4.54052 5.47187 4.67839C5.22794 4.95414 4.9734 5.22459 4.71886 5.49503C4.21508 6.03063 3.68479 6.55034 3.1439 7.05409L3.10148 6.9056C3.3295 6.96923 3.56283 7.03286 3.79086 7.10178C4.01888 7.17077 4.2469 7.23969 4.47493 7.31391C4.2363 7.28209 4.00297 7.24498 3.76434 7.20258C3.52571 7.16541 3.29238 7.11772 3.05905 7.07532L2.90527 7.0488L3.01663 6.92683C3.5098 6.37532 4.02418 5.83972 4.54917 5.32534C4.81431 5.0655 5.07946 4.81096 5.35521 4.56173C5.49308 4.43976 5.63095 4.31249 5.76883 4.19052C5.83777 4.12689 5.90671 4.06856 5.98095 4.01023C6.04988 3.94659 6.11882 3.88826 6.19306 3.82993Z" fill="white"/>
<path d="M16.1362 10.8244L17.0536 10.4904L16.6347 10.3578L16.1468 10.5328L16.1362 10.8244Z" fill="#FEE007"/>
<path d="M7.55078 11.3494L7.5826 8.43815L8.11287 7.94498L10.2182 8.28965L10.1704 11.3335L9.37497 11.7577L7.55078 11.3494Z" fill="#F0A006"/>
<path d="M7.46045 11.3495L7.49226 8.35335L9.42254 8.69273L9.37479 11.7365L7.46045 11.3495Z" fill="#FFCB48"/>
<path d="M10.2178 8.28965L9.42246 8.69267L7.49219 8.35328L8.11262 7.94498L10.2178 8.28965Z" fill="#FEE007"/>
<g opacity="0.29">
<path d="M18.0078 12.182L19.3494 11.6729C19.3494 11.6729 20.3835 11.7737 20.2191 12.6752C20.2191 12.6752 20.1554 13.0835 19.9009 13.2797L18.4745 13.9426L18.0078 12.182Z" fill="#FAA753"/>
</g>
<path d="M19.2382 13.1153L20.2245 12.6752C20.2245 12.6752 20.1663 12.9881 20.0814 13.0676L19.0845 13.5183C19.0845 13.5236 19.2276 13.3062 19.2382 13.1153Z" fill="#FEE007"/>
<path d="M19.3496 11.6729C19.3496 11.6729 19.8746 11.6835 20.1662 12.1661L18.8246 12.6752C18.8246 12.6752 18.586 12.1873 17.833 12.251L19.3496 11.6729Z" fill="#FEE007"/>
<path d="M18.7665 12.3464L19.9013 11.8903C19.9013 11.8903 19.8377 11.8002 19.5673 11.7047L18.3741 12.1608C18.3688 12.1608 18.6286 12.2138 18.7665 12.3464Z" fill="white"/>
<path d="M17.9814 12.2085C17.9814 12.2085 18.5754 11.9327 19.0845 12.4949C19.0845 12.4949 19.2913 12.7229 19.2382 13.1153C19.2064 13.354 19.1003 13.6297 18.7238 13.8365C18.7238 13.8312 19.164 12.8078 17.9814 12.2085Z" fill="#FCEC9F"/>
<path d="M19.0312 13.4708C19.2512 13.0242 19.0674 12.4838 18.6208 12.2638C18.1741 12.0439 17.6337 12.2276 17.4137 12.6743C17.1938 13.1209 17.3776 13.6614 17.8242 13.8813C18.2708 14.1013 18.8112 13.9175 19.0312 13.4708Z" fill="#FFCB48"/>
<path d="M18.6711 13.0729C18.6711 13.3222 18.4643 13.5236 18.2151 13.5183C17.9658 13.5183 17.7643 13.3115 17.7696 13.0623C17.7696 12.813 17.9765 12.6115 18.2257 12.6169C18.4749 12.6222 18.6765 12.8236 18.6711 13.0729Z" fill="#A82502"/>
<path d="M19.1747 12.9244C19.1747 12.9244 19.1959 12.6593 19.758 12.4047C19.758 12.4047 19.9118 12.2668 19.7156 12.3305C19.7156 12.3305 19.1641 12.5903 18.9679 12.4842C18.9626 12.4842 19.1747 12.6593 19.1747 12.9244Z" fill="#FCEC9F"/>
<path d="M20.1081 12.2775C20.1081 12.3146 20.0762 12.3464 20.0391 12.3464C20.002 12.3464 19.9702 12.3146 19.9702 12.2775C19.9702 12.2404 20.002 12.2086 20.0391 12.2086C20.0762 12.2086 20.1081 12.2404 20.1081 12.2775Z" fill="#FCEC9F"/>
<path d="M21.4127 13.0464C20.8029 12.8714 20.612 12.7706 20.612 12.7706C20.3256 12.6274 20.2408 12.4737 20.2408 12.4737C20.2249 12.9244 20.0287 13.1418 20.0287 13.1418C20.1718 13.407 20.7128 13.4812 20.7128 13.4812C21.4286 13.5607 20.9513 14.038 20.9513 14.038C20.4317 14.7221 19.0158 15.1092 19.0158 15.1092C18.39 15.2206 18.6499 14.7009 18.6499 14.7009C18.8992 14.0539 18.6976 13.5289 18.6976 13.5289C18.6712 13.407 18.6552 13.3009 18.6499 13.2161C18.5916 13.3964 18.4166 13.5289 18.2151 13.5236C18.1196 13.5236 18.0295 13.4918 17.9605 13.4388C17.987 13.5661 18.0348 13.7039 18.0984 13.863C18.0984 13.863 18.1992 14.1335 17.9446 14.7062C17.9446 14.7062 17.6105 15.6766 18.4378 15.7826C18.4378 15.7826 19.5408 16.0902 21.2483 14.7327C21.7892 14.3031 21.874 13.7888 21.874 13.7888C21.9377 13.1737 21.4127 13.0464 21.4127 13.0464Z" fill="#F0A006"/>
<path d="M18.6496 13.2108C18.6655 13.1684 18.6708 13.1206 18.6708 13.0729C18.6708 12.9986 18.6549 12.9297 18.623 12.8661C18.6337 12.9085 18.6443 12.9615 18.6443 13.0199C18.6443 13.0252 18.639 13.0941 18.6496 13.2108Z" fill="#A82502"/>
<path d="M18.0506 12.654C17.8862 12.7229 17.7695 12.882 17.7695 13.0676C17.7695 13.2214 17.8437 13.3593 17.9604 13.4388C17.8544 12.9774 17.9764 12.7441 18.0506 12.654Z" fill="#A82502"/>
<path d="M18.6499 13.2108C18.6392 13.0941 18.6445 13.0252 18.6445 13.0252C18.6445 12.9668 18.6392 12.9138 18.6233 12.8714C18.5491 12.7229 18.4006 12.6222 18.2256 12.6222C18.162 12.6222 18.1036 12.6327 18.0506 12.654C17.9764 12.7494 17.8544 12.9774 17.9604 13.4441C18.0347 13.4971 18.1195 13.5236 18.215 13.5289C18.4165 13.5236 18.5915 13.3964 18.6499 13.2108Z" fill="#F0A006"/>
<g opacity="0.5">
<path d="M20.1078 13.2426C20.1078 13.2426 20.479 13.1684 20.5851 12.7282C20.5851 12.7282 20.3305 12.5691 20.2404 12.4737C20.2404 12.4737 20.2404 12.8555 20.0229 13.1524L20.1078 13.2426Z" fill="#B94B14"/>
</g>
<path d="M18.4164 13.7888C18.4164 13.7888 18.5542 14.1122 18.4164 14.563C18.4164 14.563 18.1672 15.1092 18.4164 15.3319C18.4164 15.3319 18.6762 15.5652 19.4982 15.2948C19.4982 15.2948 19.5989 15.2471 19.5883 15.3213C19.5883 15.3213 19.583 15.4009 19.3656 15.4698C19.3656 15.4698 18.5436 15.7508 18.2361 15.4221C18.2361 15.4221 17.9763 15.1834 18.2361 14.5789C18.2361 14.5789 18.3846 14.2607 18.3156 14.0062C18.3156 14.0062 18.2255 13.6668 18.2997 13.6403C18.2997 13.6403 18.3633 13.566 18.4164 13.7888Z" fill="#FFCB48"/>
<path d="M18.2574 13.7305C18.2574 13.7305 18.4112 14.091 18.2574 14.5948C18.2574 14.5948 17.9763 15.2046 18.2574 15.4486C18.2574 15.4486 18.5438 15.7084 19.4611 15.4062C19.4611 15.4062 19.5725 15.3531 19.5619 15.4327C19.5619 15.4327 19.5566 15.5175 19.3126 15.597C19.3126 15.597 18.3953 15.9099 18.0559 15.544C18.0559 15.544 17.7642 15.2789 18.0559 14.6054C18.0559 14.6054 18.2203 14.2501 18.1461 13.969C18.1461 13.969 18.0453 13.5926 18.1301 13.5607C18.1301 13.566 18.199 13.4865 18.2574 13.7305Z" fill="white"/>
<path d="M18.2627 12.7547C18.2627 12.7547 18.4059 12.7494 18.4695 12.9456C18.4695 12.9456 18.3741 13.0305 18.3952 13.2797C18.3952 13.2797 18.4059 13.4176 18.2733 13.4388C18.2733 13.4388 18.1514 13.4653 18.1354 13.2903C18.1354 13.2956 18.0506 12.9191 18.2627 12.7547Z" fill="#FFCB48"/>
<path d="M21.4124 13.6668C21.4124 13.6668 21.3594 14.3137 20.5056 14.7433C20.5056 14.7433 20.3571 14.7804 20.3677 14.6743C20.3677 14.6743 20.373 14.6425 20.4844 14.5683C20.4844 14.5683 21.1526 14.1812 21.1897 13.6668C21.1897 13.6668 21.2215 13.4759 21.0465 13.4335C21.0465 13.4335 21.1685 13.3433 21.3222 13.4335C21.3222 13.4335 21.3753 13.2797 21.0412 13.1948C21.0412 13.1948 20.9776 13.1471 21.0147 13.11C21.0147 13.11 21.02 13.0781 21.0889 13.11C21.0889 13.11 21.5344 13.1895 21.6563 13.4282C21.6563 13.4282 21.7783 13.6191 21.6139 14.0486C21.6139 14.0486 21.5609 14.0486 21.5874 13.9797C21.5821 13.9797 21.6404 13.6297 21.4124 13.6668Z" fill="#FFCB48"/>
<path d="M20.2724 14.7698C20.2831 14.8016 20.2406 14.8494 20.1717 14.8706C20.1027 14.8971 20.0391 14.8865 20.0285 14.8546C20.0179 14.8228 20.0603 14.7751 20.1293 14.7539C20.1982 14.7327 20.2618 14.738 20.2724 14.7698Z" fill="#FFCB48"/>
<g opacity="0.75">
<path d="M21.0307 12.9244C21.0307 12.9244 21.6936 13.041 21.8103 13.3751C21.8103 13.3751 22.033 13.741 21.6512 14.2926C21.6512 14.2926 21.5769 14.3084 21.6512 14.1441C21.6512 14.1441 21.8262 13.7039 21.6512 13.3857C21.6512 13.3857 21.5769 13.179 21.0148 12.9827C21.0096 12.988 20.9088 12.9244 21.0307 12.9244Z" fill="#CE5F02"/>
</g>
<path d="M21.2799 14.2077C21.2799 14.2077 20.7337 14.8652 19.7951 15.2153C19.7951 15.2153 19.6943 15.2524 19.6943 15.3425C19.6943 15.3425 19.689 15.5069 19.9913 15.4009C19.9913 15.4009 20.9034 15.0031 21.4921 14.2395C21.4921 14.2395 21.614 14.0857 21.4974 14.0009C21.5026 14.0009 21.4603 13.9532 21.2799 14.2077Z" fill="#FEE007"/>
<path d="M21.211 14.1122C21.211 14.1122 20.9193 14.5365 20.3678 14.7963C20.3678 14.7963 20.3095 14.8228 20.3148 14.8759C20.3148 14.8759 20.3201 14.9766 20.4951 14.8971C20.4951 14.8971 21.0254 14.6107 21.3382 14.1175C21.3382 14.1175 21.4072 14.0168 21.3277 13.9744C21.3329 13.9797 21.3064 13.9479 21.211 14.1122Z" fill="white"/>
<path d="M3.5045 16.5569L3.52571 16.8061L4.9893 17.1031L5.74762 16.8008L6.19306 16.9122L5.01582 17.3576L2.90527 16.9175L3.5045 16.5569Z" fill="#FCEC9F"/>
<path d="M12.6044 18.5879L12.615 18.7098L14.6036 19.1182L16.0513 18.4871L16.4066 18.6303L14.6248 19.5L12.106 18.8954V18.8849L12.6044 18.5879Z" fill="#FCEC9F"/>
<path d="M14.6248 19.5L14.593 20.8522L12.1218 20.1151L12.106 18.8954L14.6248 19.5Z" fill="#FFCB48"/>
<path d="M16.4066 18.6303L16.3642 19.8023L14.5771 20.8628L14.6248 19.5L16.2794 18.6727" fill="#EF8B07"/>
<path d="M20.3679 16.1167L20.3573 16.2281L19.4346 16.6841L18.9838 16.5834L18.7876 16.7106L19.4187 16.8697L20.6118 16.2387L20.6065 16.2228L20.3679 16.1167Z" fill="#FCEC9F"/>
<path d="M20.5374 16.8962L19.3496 17.6705L19.4185 16.8697L20.6117 16.2387L20.5427 16.9386" fill="#EF8B07"/>
<path d="M18.7877 16.7106L19.3763 16.8698L19.3498 17.6705L18.7559 17.4796L18.7877 16.7106Z" fill="#A82502"/>
<path d="M6.19287 16.9121L6.23529 17.872L5.05805 18.45L5.01562 17.4425L6.19287 16.9121Z" fill="#EF8B07"/>
<path d="M3.5045 16.5569L3.52571 16.8061L4.98931 17.1031L5.74762 16.8008L6.15065 16.9122L5.01583 17.4425L2.92118 17.0023L2.90527 16.9175L3.5045 16.5569Z" fill="#FCEC9F"/>
<path d="M5.01577 17.4425L5.05819 18.45L2.96885 17.9144L2.86279 16.9599L5.01577 17.4425Z" fill="#FFCB48"/>
<path d="M4.98926 17.0606L5.74757 16.7637L6.19301 16.8697L4.98926 17.0606Z" fill="#E57C13"/>
</g>
<defs>
<clipPath id="clip0_5_2549">
<rect width="24" height="24" fill="white"/>
</clipPath>
</defs>
</svg>
